<?xml version="1.0" encoding="UTF-8"?>
<svg id="Capa_1" xmlns="http://www.w3.org/2000/svg" version="1.1" viewBox="0 0 44 48">
  <!-- Generator: Adobe Illustrator 30.3.0, SVG Export Plug-In . SVG Version: 2.1.3 Build 157)  -->
  <defs>
    <style>
      .st0 {
        fill: #fff;
        font-family: MyriadPro-Bold, 'Myriad Pro';
        font-size: 2.5px;
        font-weight: 700;
      }

      .st1 {
        fill: #fb9f3d;
      }

      .st2 {
        fill: #6d7577;
      }

      .st3 {
        fill: #fefefe;
      }
    </style>
  </defs>
  <g>
    <path class="st2" d="M42.6,23.9c0,11.5-9.3,20.8-20.8,20.8S1.1,35.4,1.1,23.9,10.4,3.2,21.8,3.2s20.8,9.3,20.8,20.8ZM14.1,26v-2.2s-1.1-.1-1.1-.1c-.2,0-.1-.7,0-.8.4,0,.8,0,1.1,0v-2.9c-.4,0-.7,0-1.1,0v-2.1s-3,.2-3,.2c0,.6,0,1.2,0,1.9h-.6c0,0,0,1.7,0,1.7,0,.4,0,.6,0,.9s.5.3.6.5c.3.6-.3,2.5,1.1,3.1s2,.2,3,0ZM36,26.3v-3.9c0-.6,0-1.2-.4-1.7-.4-.7-1.1-1-1.9-.9s-1.3.4-1.8,1v-2.8c0,0-2.8,0-2.8,0l-.2,8.3h3.1s0-2.9,0-2.9c0-.3.3-.4.4-.4s.4.2.4.4v2.9c0,0,3.1,0,3.1,0ZM24.9,23.4c0-.3.2-.4.5-.4s.3.2.3.6l2.8-.2c0-.7,0-1.3-.2-1.9-.4-1.2-1.5-1.8-2.7-1.8s-2.4.2-3,1.3-.8,3.2.3,4.3,3.5,1.2,5,.4c.1-.7,0-1.2,0-1.8-1.5.4-3.1.6-2.8-.5ZM19.3,26.3h2.1s0-4,0-4c0-.9-.7-1.7-1.5-2.1-1.7-.9-4.4-.2-5,1.3s-.4,2.1,0,3.1,1.4,1.7,2.5,1.7,1.3-.3,1.8-.9c0,.3,0,.8.2.8ZM8.8,25.2c0-.7-.6-1.3-1.3-1.3s-1.3.6-1.3,1.3.6,1.3,1.3,1.3,1.3-.6,1.3-1.3ZM21,29.1c0-.3,0-.5.3-.8h-.9c.3.3.4.5.3.9,0,0,.1,0,.2,0ZM22.4,29.1c.1-.4.2-.6,0-.7s-.5-.3-.6-.1,0,.5,0,.8c0,0,.2-.1.3,0s.2.2.2.1ZM24,29.2c0-.4-.1-.7-.4-1-.3.3-.4.6-.4,1,.3-.2.5-.2.8,0ZM25.6,28.2c-.2.2-.4.4-.5.4s-.2-.2-.4-.3c0,.3,0,.6,0,1,.1-.2.3-.4.4-.3l.4.3c.1-.3.1-.7,0-1ZM27.1,29.2c0-.4,0-.7-.4-1-.2.4-.3.6-.4,1,.3-.2.5-.2.8,0ZM31.9,29.2c0-.4,0-.5.3-.9h-.9c.2.3.3.5.3.9,0,0,.2,0,.3,0ZM35.8,29.2c0-.4,0-.8-.4-1-.2.4-.3.7-.3,1,.3-.2.5-.2.8,0ZM29.4,29.2l-.2-.7c-.1,0-.3,0-.4,0l-.2.8c.3-.1.4-.2.8,0Z"/>
    <path class="st3" d="M25.6,28.2c.2.3.2.7,0,1l-.4-.3c-.1,0-.3,0-.4.3-.1-.4,0-.6,0-1,.2.1.3.3.4.3s.2-.1.5-.4Z"/>
    <path class="st3" d="M22.4,29.1s-.1-.1-.2-.1c0,0-.2,0-.3,0,0-.3,0-.6,0-.8s.5,0,.6.1,0,.3,0,.7Z"/>
    <path class="st3" d="M27.1,29.2c-.3-.2-.5-.2-.8,0,0-.4.2-.6.4-1,.4.3.4.6.4,1Z"/>
    <path class="st3" d="M35.8,29.2c-.3-.2-.5-.2-.8,0,0-.3,0-.6.3-1,.4.3.4.6.4,1Z"/>
    <path class="st3" d="M24,29.2c-.3-.2-.5-.2-.8,0,0-.4.1-.7.4-1,.3.3.3.6.4,1Z"/>
    <path class="st3" d="M29.4,29.2c-.4-.1-.5-.1-.8,0l.2-.8c.1,0,.3,0,.4,0l.2.7Z"/>
    <path class="st3" d="M31.9,29.2c0,0-.2,0-.3,0,0-.4,0-.6-.3-.8h.9c-.3.3-.4.5-.3.9Z"/>
    <path class="st3" d="M21,29.1c-.1,0-.2,0-.2,0,0-.4,0-.5-.3-.9h.9c-.3.3-.4.5-.3.9Z"/>
    <g>
      <path class="st1" d="M36,26.3h-3.1s0-2.9,0-2.9c0-.2-.2-.4-.4-.4s-.4.1-.4.4v2.9s-3.1,0-3.1,0l.2-8.3h2.7s0,2.8,0,2.8c.5-.6,1.1-1,1.8-1s1.4.3,1.9.9.4,1.1.4,1.7v3.9Z"/>
      <path class="st1" d="M24.9,23.4c-.2,1,1.3.9,2.8.5,0,.6,0,1.1,0,1.8-1.5.8-3.7,1-5-.4s-1-3.1-.3-4.3,1.9-1.2,3-1.3,2.3.7,2.7,1.8.2,1.2.2,1.9l-2.8.2c0-.4-.1-.6-.3-.6-.3,0-.4,0-.5.4Z"/>
      <path class="st1" d="M14.1,26c-1,.3-2.1.5-3,0-1.4-.5-.9-2.5-1.1-3.1s-.5-.3-.6-.5c-.1-.3,0-.6,0-.9v-1.6s.7,0,.7,0c0-.7,0-1.2,0-1.9l3-.2v2.1c.4,0,.7,0,1,0v2.9c-.3,0-.6,0-1.1,0-.1.2-.2.7,0,.8h1.1c0,.1,0,2.3,0,2.3Z"/>
      <circle class="st1" cx="7.6" cy="25.2" r="1.3"/>
      <g>
        <path class="st1" d="M19.3,26.3c-.2,0-.2-.6-.2-.8-.5.6-1,.9-1.8.9-1.1,0-2.1-.6-2.5-1.7s-.3-2.1,0-3.1c.6-1.6,3.3-2.2,5-1.3s1.5,1.2,1.5,2.1v4c0,0-2.1,0-2.1,0ZM18.5,23.6c0-.3-.3-.6-.6-.6s-.6.3-.6.6.3.6.6.6.6-.3.6-.6Z"/>
        <circle class="st2" cx="17.9" cy="23.6" r=".6"/>
      </g>
    </g>
  </g>
  <rect class="st2" x="18.5" y="27.4" width="18.2" height="3.1"/>
  <text class="st0" transform="translate(20 30.3)"><tspan x="0" y="0">TRAMA ACTIVA</tspan></text>
</svg>